<svg width="32" height="32" viewBox="0 0 32 32" fill="none" xmlns="http://www.w3.org/2000/svg">
  <circle cx="16" cy="16" r="16" fill="#5A3B1C"/>
  <path d="M10.6667 10.6667H21.3333V20C21.3333 22.2091 19.5425 24 17.3333 24H14.6667C12.4576 24 10.6667 22.2091 10.6667 20V10.6667Z" fill="#8E602E"/>
  <path d="M11.2 11.2H20.8V19.4667C20.8 21.6758 19.0092 23.4667 16.8 23.4667H15.2C12.9909 23.4667 11.2 21.6758 11.2 19.4667V11.2Z" fill="#CCBE96"/>
  <path d="M21.3333 13.3333H24C24 14.8071 22.8071 16 21.3333 16V13.3333Z" fill="#8E602E"/>
  <path d="M11.2 13.3333C11.2 15.1006 12.6327 16.5333 14.4 16.5333C16.1673 16.5333 17.6 15.1006 17.6 13.3333C17.6 13.3333 16.1673 13.8667 14.4 13.8667C12.6327 13.8667 11.2 13.3333 11.2 13.3333Z" fill="#5A3B1C"/>
  <path d="M14.6667 20L15.4667 19.2M17.3333 20L16.5333 19.2" stroke="#5A3B1C" stroke-width="0.533333" stroke-linecap="round"/>
  <circle cx="16" cy="8" r="1.33333" fill="#B92B04"/>
  <path d="M16 6.66667V4" stroke="#B92B04" stroke-width="0.533333"/>
</svg>