<svg width="120" height="120" viewBox="0 0 120 120" fill="none" xmlns="http://www.w3.org/2000/svg">
  <circle cx="60" cy="60" r="60" fill="#5A3B1C"/>
  <path d="M40 40H80V75C80 83.2843 73.2843 90 65 90H55C46.7157 90 40 83.2843 40 75V40Z" fill="#8E602E"/>
  <path d="M42 42H78V73C78 81.2843 71.2843 88 63 88H57C48.7157 88 42 81.2843 42 73V42Z" fill="#CCBE96"/>
  <path d="M80 50H90C90 55.5228 85.5228 60 80 60V50Z" fill="#8E602E"/>
  <path d="M42 50C42 56.6274 47.3726 62 54 62C60.6274 62 66 56.6274 66 50C66 50 60.6274 52 54 52C47.3726 52 42 50 42 50Z" fill="#5A3B1C"/>
  <path d="M55 75L58 72M65 75L62 72" stroke="#5A3B1C" stroke-width="2" stroke-linecap="round"/>
  <circle cx="60" cy="30" r="5" fill="#B92B04"/>
  <path d="M60 25V15" stroke="#B92B04" stroke-width="2"/>
</svg>